<?xml version="1.0" standalone="no"?>
<!DOCTYPE svg PUBLIC "-//W3C//DTD SVG 20010904//EN"
 "http://www.w3.org/TR/2001/REC-SVG-20010904/DTD/svg10.dtd">
<svg version="1.0" xmlns="http://www.w3.org/2000/svg"
 width="225.000000pt" height="225.000000pt" viewBox="0 0 225.000000 225.000000"
 preserveAspectRatio="xMidYMid meet">
<metadata>
Created by potrace 1.11, written by Peter Selinger 2001-2013
</metadata>
<g transform="translate(0.000000,225.000000) scale(0.100000,-0.100000)"
fill="#000000" stroke="none">
<path d="M635 2150 c-47 -10 -71 -27 -94 -64 l-22 -35 -42 19 c-126 56 -261
20 -332 -88 -35 -53 -51 -138 -36 -196 11 -46 11 -46 -28 -85 -27 -27 -42 -53
-49 -85 -17 -80 7 -141 73 -192 29 -22 47 -27 93 -28 35 0 69 7 89 17 45 24
84 79 90 127 5 33 10 40 27 40 12 0 45 12 74 26 82 41 142 131 142 214 l0 40
43 0 c82 0 147 66 147 149 0 94 -82 161 -175 141z"/>
<path d="M1545 2145 c-22 -8 -52 -28 -67 -45 -24 -25 -28 -39 -28 -86 0 -94
46 -145 137 -152 l53 -4 0 -47 c1 -93 88 -197 187 -224 34 -9 45 -17 49 -37
17 -77 64 -131 131 -149 52 -15 72 -13 119 8 57 26 96 80 102 141 6 68 -3 95
-48 144 -39 43 -40 44 -31 92 26 137 -57 269 -194 305 -49 14 -126 4 -176 -22
-45 -22 -49 -23 -49 -6 -1 15 -41 62 -66 74 -36 19 -79 21 -119 8z"/>
<path d="M1435 1616 c-12 -8 -21 -31 -24 -61 -6 -47 -7 -47 -44 -50 -20 -1
-46 -10 -57 -20 -20 -18 -26 -60 -12 -81 12 -19 49 -34 81 -34 29 0 31 -2 31
-38 0 -52 23 -82 64 -82 44 0 66 26 66 78 l0 42 40 0 c71 0 117 72 72 113 -10
9 -40 20 -65 23 -47 7 -47 7 -47 45 0 65 -57 100 -105 65z"/>
<path d="M711 1582 c-54 -27 -75 -63 -79 -135 -5 -99 40 -163 124 -173 85 -11
149 62 148 167 -1 68 -29 120 -78 143 -44 21 -73 20 -115 -2z"/>
<path d="M1057 1390 c-56 -15 -108 -44 -149 -86 -114 -114 -117 -310 -7 -424
153 -157 415 -112 506 87 21 46 25 66 21 131 -4 90 -29 149 -86 207 -69 70
-193 107 -285 85z"/>
<path d="M458 841 c-44 -39 -45 -90 -4 -144 77 -101 273 -224 426 -267 97 -28
290 -38 398 -20 189 30 407 150 513 283 45 56 45 109 0 149 -40 36 -72 35
-144 -3 -304 -160 -695 -165 -1012 -14 -52 25 -106 45 -120 45 -13 0 -39 -13
-57 -29z"/>
</g>
</svg>
